<?xml version="1.0" encoding="UTF-8"?>
<!-- This Source Code Form is subject to the terms of the Mozilla Public
   - License, v. 2.0. If a copy of the MPL was not distributed with this
   - file, You can obtain one at http://mozilla.org/MPL/2.0/. -->
<svg width="48" height="48" version="1.1" viewBox="0 0 48 48" xmlns="http://www.w3.org/2000/svg">
 <g transform="matrix(1.0909 0 0 1.0909 -3.75e-7 .00015342)" fill="#4e9603" stroke-width="2.75">
  <path d="m38.393 11.776a2.475 2.475 0 0 0-1.9882-1.6747l-8.4232-1.2237-3.7675-7.6229a2.5685 2.5685 0 0 0-4.4138 0l-3.7675 7.6229-8.4233 1.2237a2.4557 2.4557 0 0 0-1.3667 4.1992l6.0967 5.9289-1.4382 8.3709a2.4585 2.4585 0 0 0 3.575 2.5905l7.524-3.9462 7.535 3.9572a2.442 2.442 0 0 0 1.144 0.275 2.475 2.475 0 0 0 1.4465-0.473 2.4557 2.4557 0 0 0 0.97625-2.4035l-1.4355-8.3792 6.105-5.9207a2.4557 2.4557 0 0 0 0.6215-2.5245zm-12.009 6.7374 1.034 6.0197-5.4175-2.8407-5.4038 2.8407 1.034-6.0197-4.378-4.2625 6.05-0.87724 2.6978-5.4752 2.7032 5.4752 6.05 0.87724z"/>
  <path d="m38.5 44h-33a2.75 2.75 0 0 1-2.75-2.75v-5.5a2.75 2.75 0 0 1 5.5 0v2.75h27.5v-2.75a2.75 2.75 0 0 1 5.5 0v5.5a2.75 2.75 0 0 1-2.75 2.75z"/>
 </g>
</svg>
