<!-- This Source Code Form is subject to the terms of the Mozilla Public
   - License, v. 2.0. If a copy of the MPL was not distributed with this
   - file, You can obtain one at http://mozilla.org/MPL/2.0/. -->
<!-- Icon has been flipped horizontally from upstream -->
<svg xmlns="http://www.w3.org/2000/svg" viewBox="0 0 16 16">
  <path d="m1.2809 13.293 3.293-3.293-2.293-2.293a1 1 0 0 1 0-1.414 4.384 4.384 0 0 1 3.121-1.293h0.172a2.415 2.415 0 0 0 2.414-2.414v-0.586a1 1 0 0 1 1.707-0.707l5 5a1 1 0 0 1-0.707 1.707h-0.586a2.415 2.415 0 0 0-2.414 2.414v0.169a4.036 4.036 0 0 1-1.337 3.166 1 1 0 0 1-1.37-0.042l-2.293-2.293-3.293 3.293a1 1 0 0 1-1.414-1.414zm7.578-1.837a2.684 2.684 0 0 0 0.129-0.873v-0.169a4.386 4.386 0 0 1 1.292-3.121 4.414 4.414 0 0 1 1.572-1.015l-2.143-2.142a4.4 4.4 0 0 1-1.013 1.571 4.384 4.384 0 0 1-3.122 1.293h-0.172a2.4 2.4 0 0 0-0.848 0.152z" />
</svg>