<!-- This Source Code Form is subject to the terms of the Mozilla Public
   - License, v. 2.0. If a copy of the MPL was not distributed with this
   - file, You can obtain one at http://mozilla.org/MPL/2.0/. -->
<!-- Icon has been flipped horizontally from upstream, scaled to 16, and simplified the fill -->
<svg xmlns="http://www.w3.org/2000/svg" viewBox="0 0 16 16">
  <path d="m8.948 0c0.66528 0 1.1975 0.26611 1.5967 0.66528l4.79 4.79c0.39917 0.39917 0.66528 0.93139 0.66528 1.5967 0 0.66528-0.26611 1.1975-0.66528 1.5967-0.39917 0.39917-1.0644 0.66528-1.5967 0.66528h-0.53222c-0.53222 0-0.93139 0.39917-0.93139 0.93139v0.13306c0 1.4636-0.53222 2.9272-1.7297 3.9917-0.39917 0.39917-0.93139 0.53222-1.4636 0.53222-0.66528 0-1.1975-0.26611-1.5967-0.66528l-1.1975-1.1975-2.262 2.262c-0.39917 0.39917-1.0644 0.66528-1.5967 0.66528-0.66528 0-1.1975-0.26611-1.7297-0.66528-0.93139-0.93139-0.93139-2.395 0-3.3264l2.1289-2.1289-1.1975-1.1975c-0.93139-0.93139-0.93139-2.395 0-3.1933 1.0644-1.0644 2.5281-1.7297 3.9917-1.7297h0.13306c0.53222 0 0.93139-0.39917 0.93139-0.93139v-0.53222c0-0.66528 0.26611-1.1975 0.66528-1.5967 0.39917-0.39917 1.0644-0.66528 1.5967-0.66528z" />
</svg>